inDegrees=no
nColumns=32
nRows=10
DataType=double
version=3
OpenSimVersion=4.5
endheader
time	pelvis_tilt	pelvis_list	pelvis_rotation	pelvis_tz	pelvis_ty	pelvis_tx	hip_flexion_r	hip_adduction_r	hip_rotation_r	knee_angle_r	ankle_angle_r	subtalar_angle_r	mtp_angle_r	hip_flexion_l	hip_adduction_l	hip_rotation_l	knee_angle_l	ankle_angle_l	subtalar_angle_l	mtp_angle_l	lumbar_extension	lumbar_bending	lumbar_rotation	arm_flex_r	arm_add_r	arm_rot_r	elbow_flex_r	arm_flex_l	arm_add_l	arm_rot_l	elbow_flex_l
0.6299999999999999	-0.04414718201169552	0.09154795553664495	0.004038546394744299	-0.07224157999999997	0.84869133	0.59111612	0.5367248733037726	-0.07363969782515345	-0.2256663497709767	-0.2206867257493705	0.1351009382503046	0.04056697648156248	0	-0.2798958296105966	0.1699025705336164	-0.2908511075618579	-0.07982586289720854	0.315923386221964	0.1017119190894221	0	-0.08887166198406206	-0.05381610558760197	-0.1205073331522348	-0.3332675110151889	-0.194370782012961	-0.2829442333758359	0.6956616897218255	-0.06997472019879873	-0.251035898843402	-0.05397357495230343	1.051418006386404
0.6400000000000001	-0.04617907893683117	0.09203700869794355	0.004247183511702964	-0.07148073999999999	0.84715207	0.60197016	0.5412669115169114	-0.0727827568703875	-0.2128857518591742	-0.2459468477391505	0.1207651962989719	0.01397223873736129	0	-0.2880438037540221	0.1676894408567429	-0.2954902468188657	-0.08576146518572178	0.3072475290432254	0.1068383670144902	0	-0.0859471601896194	-0.05354441908412319	-0.1180537074018791	-0.3290618644204868	-0.1948357525609909	-0.2786643226723955	0.6950380331400725	-0.07137209991298377	-0.2479845053291541	-0.04789685406712021	1.043631525186718
0.6499999999999999	-0.05025810620098937	0.08939782493626397	0.004490737793189918	-0.07072437999999998	0.84591043	0.61288373	0.5440494651596907	-0.06884370670093361	-0.2115649900047566	-0.2590298105048259	0.0725411612394765	-0.0170679691996635	0	-0.2919187666550732	0.1618379129981604	-0.2967958126150849	-0.0954721570504334	0.3025524790362947	0.1094893329545787	0	-0.0809476004936981	-0.0494250702942859	-0.1143507269763915	-0.3250025158615428	-0.1940249310590443	-0.2754333558966013	0.6940887747398516	-0.07523824418892336	-0.2436847764120573	-0.04222163221372427	1.037736769013222
0.6600000000000001	-0.05611053973930701	0.08121326958254345	0.004556667472643059	-0.06928565999999997	0.84483986	0.62375187	0.5469981189948554	-0.05627392763307821	-0.1871075016538033	-0.2680457304275499	0.03806952237209657	-0.07974545069164726	0	-0.2917920522607199	0.148695299416508	-0.3009183995142833	-0.1084145501254885	0.2947486894064161	0.1144903564581436	0	-0.07408084829408509	-0.04008990364596629	-0.1095408646734085	-0.319808903129002	-0.1950843754110692	-0.2712076444732194	0.6933684190635566	-0.07552169333889594	-0.2408149446129725	-0.03524735987820678	1.024948604924579
0.6699999999999999	-0.05793820833199125	0.07463994890209344	0.004325307698390964	-0.06804033999999998	0.84450093	0.6345328099999999	0.5489149905503758	-0.04817962917093568	-0.1723902501011394	-0.2854329186020739	0.01730883964627028	-0.110852482398809	0	-0.2944770817918195	0.1372529681388559	-0.3020451271816373	-0.12333325368907	0.2839670844566318	0.1176569554911243	0	-0.07258781668290913	-0.03228672173973329	-0.104640048725248	-0.3137618900166157	-0.195162933902432	-0.2678938565884303	0.6925634353388919	-0.07710732095007551	-0.2359474525852861	-0.03106192140371592	1.016064317559508
0.6800000000000002	-0.05771155950205264	0.06719674189391225	0.003879402549214184	-0.06701608999999997	0.84447975	0.64521743	0.554840709039335	-0.04148108726677383	-0.161284905424666	-0.3177572651026241	0.002722189336203855	-0.1232694919245727	0	-0.2961029652476634	0.124243335730769	-0.3029912836081787	-0.1439027141277905	0.2708842065139581	0.1178479882354733	0	-0.07458981038951031	-0.02288005156995335	-0.1004626111891141	-0.3063957486779917	-0.1952271899441734	-0.2667164449086643	0.6935633335946948	-0.0800982751085903	-0.2308032401754924	-0.02720579950647298	1.008712312340627
0.6899999999999999	-0.05532069470091391	0.05926109030666363	0.003279784019920018	-0.06586208999999998	0.84488129	0.65657864	0.5600744249002306	-0.03369842397482604	-0.1507926867113708	-0.357357162848704	0.003093726300722148	-0.1353011707996738	0	-0.3011280292654112	0.1107755425257946	-0.2993249187941345	-0.162901541777067	0.2559323354114034	0.1181329998041923	0	-0.07751229266347549	-0.01341375571693753	-0.09482127821927124	-0.2984710365288826	-0.1966163039535539	-0.2667189302575191	0.6949793947895945	-0.0835667171419974	-0.2267136687970893	-0.0248934106861106	1.003127614781413
0.7000000000000002	-0.05124325396409652	0.0526295197969064	0.002698021572763387	-0.06394913000000002	0.84548484	0.66824847	0.5600975667443816	-0.02468820586823539	-0.1407497323281668	-0.3928887132927497	0.01391377631607186	-0.1533705238793995	0	-0.3048168295888581	0.09626990272015701	-0.2967842592335683	-0.1881597180737969	0.2334250542301507	0.1187144127857959	0	-0.0811438873772273	-0.006987516242947476	-0.09059473375023741	-0.2928929289838579	-0.1932704774087518	-0.2652338528098763	0.6948063145019314	-0.08860329282789255	-0.2243047849111743	-0.02183348163915576	0.9938212872555212
0.71	-0.04717396691069849	0.04460099688811095	0.002104870101064841	-0.06189062000000001	0.8464549	0.68000256	0.5563485663498421	-0.01443717001548305	-0.1367655034383604	-0.4209843624606336	0.02227770702916357	-0.1602526822748528	0	-0.3054928195191662	0.0794866038773437	-0.2936248342019451	-0.2178588158862539	0.2098833275713482	0.1197019726109847	0	-0.08477984750850423	0.0006076402188061802	-0.08540382016938473	-0.2850816241407532	-0.19100927071777	-0.2641172707414642	0.6947999726735615	-0.09384919632295489	-0.2233848613068892	-0.01840615659586593	0.9858374889044481
0.7199999999999998	-0.04350738591477705	0.03703936913562969	0.001612136754841405	-0.05978229000000002	0.8475736699999999	0.69172314	0.5474656633799332	-0.003598883927443875	-0.1339982205538715	-0.4390556879369472	0.03514606445907954	-0.166556429480483	0	-0.3017982899779167	0.06226626411785553	-0.2895789642972156	-0.2542676850512801	0.1832379586982113	0.1204129380668382	0	-0.08830410936018031	0.007772724339989384	-0.08118341699038988	-0.2762075534095241	-0.1882184681253471	-0.2629842557000129	0.6944514222188907	-0.1000281613882467	-0.2235234292793904	-0.01452720055601915	0.9776518365931306
